PathFileType	4	(X/Y/Z)	G:\TennisProject\Miami_Dimitrov_Sinner_masked_Sports2D\Miami_Dimitrov_Sinner_masked_Sports2D_m_person00.trc
DataRate	CameraRate	NumFrames	NumMarkers	Units	OrigDataRate	OrigDataStartFrame	OrigNumFrames
25	25	12	22	m	25	374	499
Frame#	Time	Hip			RHip			RKnee			RAnkle			RBigToe			RSmallToe			RHeel			LHip			LKnee			LAnkle			LBigToe			LSmallToe			LHeel			Neck			Head			Nose			RShoulder			RElbow			RWrist			LShoulder			LElbow			LWrist		
		X1	Y1	Z1	X2	Y2	Z2	X3	Y3	Z3	X4	Y4	Z4	X5	Y5	Z5	X6	Y6	Z6	X7	Y7	Z7	X8	Y8	Z8	X9	Y9	Z9	X10	Y10	Z10	X11	Y11	Z11	X12	Y12	Z12	X13	Y13	Z13	X14	Y14	Z14	X15	Y15	Z15	X16	Y16	Z16	X17	Y17	Z17	X18	Y18	Z18	X19	Y19	Z19	X20	Y20	Z20	X21	Y21	Z21	X22	Y22	Z22
374	14.96	14.420658779972284	1.0834886940996666	0.0	14.288652347823838	1.0766452925899836	0.0	14.124727611055018	0.7106592776670331	0.0	13.9610265894581	0.3239471768445538	0.0	13.909370140151095	0.20458445771178993	0.0	13.865609227663464	0.21591549496219867	0.0	13.962631381526501	0.25896386106550484	0.0	14.554408309575571	1.0780464460827732	0.0	14.729001026462955	0.7072382855485373	0.0	14.880378469607821	0.32075139131750513	0.0	14.946714108144835	0.18187362938837995	0.0	15.00075215469872	0.19710623794810608	0.0	14.886435241358203	0.2492147736657702	0.0	14.406030539549441	1.6121771637891726	0.0	14.380950745730985	1.9037883374276565	0.0	14.391463149194722	1.745270860933191	0.0	14.223925997863908	1.5415041873198392	0.0	14.089565416082817	1.3078199774210313	0.0	14.226170673811366	1.1625531903017192	0.0	14.59573733892362	1.5531798479494547	0.0	14.686623301730448	1.2848672786897557	0.0	14.60256150220395	1.1149167670762665	0.0
375	15.0	14.461425188106652	1.0625444888321272	0.0	14.328562645495076	1.0578533802389323	0.0	14.16734306905989	0.6981533564043972	0.0	14.02218780824206	0.32345921187237536	0.0	13.981043809612391	0.20230666405940528	0.0	13.934415466798757	0.21240792594348099	0.0	14.022453599820867	0.2555898263401108	0.0	14.592790819753134	1.0577752197319537	0.0	14.783102892843369	0.6972912725705855	0.0	14.970154635720526	0.3294077762126894	0.0	15.052631543297327	0.19136944506870893	0.0	15.098786798554377	0.21598533562856606	0.0	14.981294115573633	0.2644422329813181	0.0	14.450907587877136	1.5825135856156984	0.0	14.427061858501478	1.8652336323342924	0.0	14.438057618501976	1.7128492461911289	0.0	14.270619523997938	1.5148082510916552	0.0	14.144524255272426	1.2803142256230475	0.0	14.278529833180448	1.1258967201279346	0.0	14.6372497193779	1.5241665986077007	0.0	14.73384816758168	1.2513276120179189	0.0	14.63293481790097	1.087239712169281	0.0
376	15.040000000000001	14.49997542922015	1.024553972483572	0.0	14.365257879697548	1.0205930194487767	0.0	14.209221510218732	0.6752748059423609	0.0	14.083714780191007	0.31914424125256113	0.0	14.049309852275394	0.1960143903609059	0.0	14.000663095027766	0.20928920650988223	0.0	14.08413355366066	0.2506403357831008	0.0	14.633029187004023	1.019358295247507	0.0	14.836828696615838	0.6650101358927142	0.0	15.059897909926637	0.31739005401282644	0.0	15.134913807941468	0.1795296972436234	0.0	15.18147490506558	0.21061420345036497	0.0	15.076676259934237	0.2632528136378869	0.0	14.49519034705206	1.5265990654386203	0.0	14.47546224021737	1.7993645365447857	0.0	14.485977410634	1.653333951315395	0.0	14.315008790393568	1.466801305721375	0.0	14.199182278961043	1.2295947263621254	0.0	14.32783822790159	1.0692918738527515	0.0	14.676521439271147	1.478197620753536	0.0	14.780293163859215	1.2001020337193298	0.0	14.664096264209423	1.0473271153620245	0.0
377	15.08	14.538510152957079	0.9772962872143347	0.0	14.406363275631755	0.9706566020929891	0.0	14.249315799812077	0.6500591933862022	0.0	14.155022196389483	0.3219004035339265	0.0	14.114867308309156	0.19171776761790277	0.0	14.067599838820657	0.2113794818052041	0.0	14.164947105177305	0.25728576077536797	0.0	14.668794877327112	0.9750985927668433	0.0	14.880880739010806	0.6259050385516084	0.0	15.129613224305682	0.3054040320460905	0.0	15.196307372925661	0.16099560478101965	0.0	15.247124723599189	0.19226223686957156	0.0	15.146831911457953	0.25512016248828945	0.0	14.534863327102828	1.4530725822719013	0.0	14.51894821765032	1.7407557109940524	0.0	14.531220995419488	1.5751578639423294	0.0	14.354346566331484	1.4037404566326952	0.0	14.255051716739388	1.15778897410893	0.0	14.381387660655696	0.9867835909100393	0.0	14.712492692754669	1.4161446274457965	0.0	14.816026938753197	1.138634040460121	0.0	14.704994423991474	0.9903049840598271	0.0
378	15.120000000000001	14.574627936158777	0.9322288669117148	0.0	14.450750222010255	0.9190275756170334	0.0	14.27813311789717	0.6242946533793372	0.0	14.240581606601948	0.3190051822232731	0.0	14.179303763415296	0.18889947556124076	0.0	14.138924363348206	0.21272027904293542	0.0	14.271910824877333	0.2594684599175112	0.0	14.699144446698305	0.9329478773410815	0.0	14.9113806640915	0.5959707787681034	0.0	15.173759424854845	0.29639854960208895	0.0	15.234777618264767	0.14986146092904865	0.0	15.287260001320744	0.1814736529802547	0.0	15.190509399554113	0.24595969622040534	0.0	14.56131787417053	1.3794555883795914	0.0	14.550054877880328	1.6727049546547608	0.0	14.563352681485329	1.4928952972935778	0.0	14.383648742116295	1.336221220730918	0.0	14.301176263854792	1.0839496223296172	0.0	14.426268052856678	0.8971924839634913	0.0	14.73762664540271	1.3463157021545251	0.0	14.829883714506197	1.0768526808760286	0.0	14.734957866238602	0.9267008090947532	0.0
379	15.16	14.59849214275909	0.9004449046218815	0.0	14.481463523202368	0.8780816709529343	0.0	14.284435656124902	0.5988272388595217	0.0	14.33125528004629	0.29714806717624914	0.0	14.23955188971842	0.18541118285974253	0.0	14.212484840947432	0.20741242981050165	0.0	14.386036485917591	0.24004400095320547	0.0	14.722734706235325	0.8946303163742498	0.0	14.931211992162893	0.576625816234871	0.0	15.202400713878493	0.2832771701433776	0.0	15.251420195456928	0.14740902991167237	0.0	15.30063857611422	0.1838116377845375	0.0	15.22334391415597	0.23781536336043527	0.0	14.560150243647685	1.328085381686863	0.0	14.55577927123101	1.5837555740176839	0.0	14.564547572032572	1.432803449890324	0.0	14.389032139942769	1.2839002075509784	0.0	14.321348156508076	1.0451159486930686	0.0	14.426737454585922	0.8582003544420583	0.0	14.736603079487875	1.2863178369765917	0.0	14.811646074543205	1.0239160565203171	0.0	14.69947484049949	0.8764258226413917	0.0
380	15.200000000000001	14.597224839155096	0.8899677259865432	0.0	14.47937488170007	0.8628094522728266	0.0	14.264357491745857	0.578409722614769	0.0	14.403600088491729	0.26781459159321286	0.0	14.284331314443396	0.1772805971316697	0.0	14.274476088162354	0.1985291687899436	0.0	14.471217595675986	0.21516419385086066	0.0	14.726364539242228	0.8739256324284206	0.0	14.935122965125107	0.5609749826054865	0.0	15.221765775088247	0.2669690111134325	0.0	15.260586890346701	0.14736931448881915	0.0	15.305784718701887	0.18804130993969387	0.0	15.251932605339118	0.2322098069217508	0.0	14.520847396743946	1.311305035516255	0.0	14.521523499417208	1.5177088727493808	0.0	14.524146364951175	1.4129957577115138	0.0	14.357552795215971	1.2668166788526247	0.0	14.306607406218898	1.0591173394759053	0.0	14.363167003931137	0.890479079384464	0.0	14.696006703228033	1.2549989389227245	0.0	14.756776652832936	0.986164253369758	0.0	14.580464311498648	0.8528768736569822	0.0
381	15.24	14.56456371197203	0.8976528109728558	0.0	14.444766141043315	0.872246327763357	0.0	14.229982213233894	0.566872175187759	0.0	14.438636481674473	0.24846150496432956	0.0	14.303845647997733	0.16195614754797108	0.0	14.30716827841784	0.19016174162980742	0.0	14.507312155322387	0.206226668683946	0.0	14.696218591529322	0.8812331883984333	0.0	14.906490754598028	0.5414089338047301	0.0	15.227869004848685	0.25662676909253984	0.0	15.270746454941813	0.14848998859216597	0.0	15.318706062029385	0.18708890480227758	0.0	15.269906577070504	0.23228847520771875	0.0	14.448433681614024	1.327334280504822	0.0	14.446231844559962	1.5167335674015145	0.0	14.449651268212214	1.4307868596946265	0.0	14.294058800629871	1.2861532830359597	0.0	14.262852346067737	1.1006669517659378	0.0	14.260962611475712	0.9423903634432591	0.0	14.61908254876928	1.2622062066373698	0.0	14.673758000215077	0.9768952727172138	0.0	14.442878538515764	0.8622163803024772	0.0
382	15.280000000000001	14.512858473083586	0.9095092212499523	0.0	14.400592996158943	0.8813499703602418	0.0	14.201241639633489	0.5625370219222442	0.0	14.444051557789354	0.24184918344720138	0.0	14.303480662930077	0.1511468959939484	0.0	14.311646485182546	0.18183026524945736	0.0	14.512859787802517	0.2033969657048824	0.0	14.640504513686722	0.8962283820138529	0.0	14.835445067875375	0.5146984353219722	0.0	15.209163895245938	0.26830204981935746	0.0	15.25868340003714	0.15720154496669744	0.0	15.315045331826893	0.19293653011969925	0.0	15.259907623033946	0.2513124806407784	0.0	14.36038560930485	1.3634646028127464	0.0	14.347681298988544	1.5567221540784468	0.0	14.355866619079624	1.469776122077529	0.0	14.2189092390955	1.3199670357407056	0.0	14.211015552764367	1.1379770743896258	0.0	14.171093046508854	0.976403971862299	0.0	14.525564989345114	1.2948428246511712	0.0	14.577919808812892	0.9987896672292581	0.0	14.339429914784745	0.8955662494174056	0.0
383	15.32	14.464834959664781	0.9181722882896454	0.0	14.367584990414153	0.8787476087756619	0.0	14.185294053177415	0.5622617098327659	0.0	14.443020655592239	0.24125689792965366	0.0	14.296745955833229	0.1597016157977552	0.0	14.308640482328503	0.17623681771244354	0.0	14.518519263525258	0.1903457803256113	0.0	14.579492987820688	0.8974801430013359	0.0	14.7238974582632	0.4867216366092396	0.0	15.141359848350426	0.30543797386583	0.0	15.182030130758264	0.17581346540343756	0.0	15.238013471888744	0.21591412842244573	0.0	15.19295591438855	0.2974269981458561	0.0	14.2740404177556	1.397940108286667	0.0	14.249021438606901	1.5826055840251745	0.0	14.254579309487474	1.506760185975425	0.0	14.154593311548846	1.3448111953976212	0.0	14.170144258847019	1.159974223549229	0.0	14.11140749349328	1.0063567081798657	0.0	14.432128542275851	1.3211409603410886	0.0	14.474870971564284	1.029427803580483	0.0	14.248383865929782	0.9359924241347048	0.0
384	15.36	14.425486721985552	0.924991420790729	0.0	14.344098038772486	0.8809350496977257	0.0	14.171399503328653	0.5649908892907687	0.0	14.447034080661846	0.24276410254151168	0.0	14.291051790382193	0.17576592272831335	0.0	14.309833599296734	0.1764117234246017	0.0	14.53069305097725	0.1768306756153398	0.0	14.516871181841204	0.8939996453021549	0.0	14.572405915384236	0.47253977167766276	0.0	14.998002253258115	0.33476917280580515	0.0	15.020069566115456	0.19213796903622088	0.0	15.062736142997517	0.2338116825101693	0.0	15.046738946276951	0.33443830393107327	0.0	14.195873025137582	1.4165900042309327	0.0	14.158326760969585	1.5912200046510496	0.0	14.157289694896695	1.5269252096490038	0.0	14.109700878579945	1.3574580994999517	0.0	14.13731291656385	1.1658148317767814	0.0	14.046768965351802	1.0384707981484456	0.0	14.340224121013373	1.3236818814098064	0.0	14.357157369232596	1.0477509201645148	0.0	14.131875576725145	0.9811268829127193	0.0
385	15.4	14.379991646667271	0.927870940302055	0.0	14.31375792710464	0.8971356648168214	0.0	14.141868087344228	0.5688512310187694	0.0	14.442873770268738	0.24872395498514813	0.0	14.286669953110357	0.17274015542644827	0.0	14.307455420089699	0.1738739428893308	0.0	14.52844434106273	0.18199171051743857	0.0	14.44708346043408	0.9007733674382751	0.0	14.38792569435748	0.4862397013355208	0.0	14.787894940551096	0.3231450547981279	0.0	14.793548766868179	0.18877394416760826	0.0	14.825534040890592	0.21815282428821756	0.0	14.837811867595077	0.31874294779310675	0.0	14.124770250945147	1.4229839797389603	0.0	14.07094811842889	1.6181412542882345	0.0	14.072630199043235	1.5337867137582384	0.0	14.068756090507074	1.3653463766072802	0.0	14.086965623697939	1.1610799020124352	0.0	13.94395545762254	1.0637317576151357	0.0	14.248598249492012	1.319986762340422	0.0	14.219798815184449	1.0581870430026472	0.0	13.981230122115253	1.0336020103550272	0.0
